<?xml version="1.0" encoding="UTF-8" standalone="no"?>
<!-- Created with Inkscape (http://www.inkscape.org/) -->

<svg
   xmlns:dc="http://purl.org/dc/elements/1.1/"
   xmlns:cc="http://creativecommons.org/ns#"
   xmlns:rdf="http://www.w3.org/1999/02/22-rdf-syntax-ns#"
   xmlns:svg="http://www.w3.org/2000/svg"
   xmlns="http://www.w3.org/2000/svg"
   xmlns:sodipodi="http://sodipodi.sourceforge.net/DTD/sodipodi-0.dtd"
   xmlns:inkscape="http://www.inkscape.org/namespaces/inkscape"
   width="11.022692mm"
   height="9.6222305mm"
   viewBox="0 0 11.022692 9.6222305"
   version="1.1"
   id="svg4705"
   inkscape:version="0.92.3 (2405546, 2018-03-11)"
   sodipodi:docname="gigapixel_x2.svg">
  <defs
     id="defs4699" />
  <sodipodi:namedview
     id="base"
     pagecolor="#ffffff"
     bordercolor="#666666"
     borderopacity="1.0"
     inkscape:pageopacity="0"
     inkscape:pageshadow="2"
     inkscape:zoom="11.2"
     inkscape:cx="19.261007"
     inkscape:cy="8.1041319"
     inkscape:document-units="mm"
     inkscape:current-layer="layer1"
     showgrid="false"
     fit-margin-top="0"
     fit-margin-left="0"
     fit-margin-right="0"
     fit-margin-bottom="-0.5"
     inkscape:window-width="1920"
     inkscape:window-height="1052"
     inkscape:window-x="0"
     inkscape:window-y="0"
     inkscape:window-maximized="1" />
  <metadata
     id="metadata4702">
    <rdf:RDF>
      <cc:Work
         rdf:about="">
        <dc:format>image/svg+xml</dc:format>
        <dc:type
           rdf:resource="http://purl.org/dc/dcmitype/StillImage" />
        <dc:title></dc:title>
      </cc:Work>
    </rdf:RDF>
  </metadata>
  <g
     inkscape:label="Layer 1"
     inkscape:groupmode="layer"
     id="layer1"
     transform="translate(-99.566035,-138.73056)">
    <g
       id="g44"
       transform="matrix(0.35277777,0,0,-0.35277777,110.3931,146.71444)"
       style="fill:#ffffff;fill-opacity:1;stroke:#ffffff;stroke-opacity:1">
      <path
         d="m 0,0 c 0.609,8.359 -6.533,13.036 -13.122,13.149 -1.72,0.03 -3.452,-0.024 -5.154,0.171 -3.222,0.37 -4.939,2.034 -5.172,4.77 -0.331,3.887 -1.218,4.526 -5.161,3.892 -1.143,-0.184 -1.662,-0.747 -1.714,-1.858 -0.176,-3.752 0.595,-7.153 3.359,-9.938 3.379,-3.406 7.558,-3.978 12.103,-3.967 5.893,0.015 8.927,-1.986 8.223,-7.774 -0.129,-1.055 0.082,-2.04 1.408,-2.393 C -1.442,-4.958 0.095,-3.819 0,0 Z"
         style="fill:#ffffff;fill-opacity:1;stroke:#ffffff;stroke-width:0.68900001;stroke-linecap:butt;stroke-linejoin:miter;stroke-miterlimit:10;stroke-dasharray:none;stroke-opacity:1"
         id="path46"
         inkscape:connector-curvature="0" />
    </g>
    <g
       id="g48"
       transform="matrix(0.35277777,0,0,-0.35277777,99.694869,146.49208)"
       style="fill:#ffffff;fill-opacity:1;stroke:#ffffff;stroke-opacity:1">
      <path
         d="M 0,0 C -0.034,-4.574 0.039,-4.513 3.644,-4.668 6.137,-4.775 7.152,-3.881 6.85,-1.411 6.768,-0.74 6.63,0.115 6.947,0.612 8.886,4.223 6.121,4.37 3.949,5.744 2.371,6.743 1.901,6.75 1.209,5.375 0.218,3.404 0.031,1.292 0,0 Z"
         style="fill:#ffffff;fill-opacity:1;stroke:#ffffff;stroke-width:0.68900001;stroke-linecap:butt;stroke-linejoin:miter;stroke-miterlimit:10;stroke-dasharray:none;stroke-opacity:1"
         id="path50"
         inkscape:connector-curvature="0" />
    </g>
    <g
       id="g52"
       transform="matrix(0.35277777,0,0,-0.35277777,110.46719,139.55037)"
       style="fill:#ffffff;fill-opacity:1;stroke:#ffffff;stroke-opacity:1">
      <path
         d="M 0,0 C 0,1.214 0,1.093 -0.97,1.451 -2.722,1.9 -5.345,2.566 -6.263,0.974 -7.402,-1.004 -7.209,-3.087 -7.64,-5.47 c 0,0 0.144,-0.409 0.22,-0.443 1.984,-0.879 3.983,-2.295 5.458,-2.04 1.8,0.31 1.558,2.27 1.722,4.154 C -0.173,-3.033 -0.068,-0.806 0,0 Z"
         style="fill:#ffffff;fill-opacity:1;stroke:#ffffff;stroke-width:0.68900001;stroke-linecap:butt;stroke-linejoin:miter;stroke-miterlimit:10;stroke-dasharray:none;stroke-opacity:1"
         id="path54"
         inkscape:connector-curvature="0" />
    </g>
  </g>
</svg>
